<?xml version="1.0" encoding="UTF-8"?><svg id="Layer_1" xmlns="http://www.w3.org/2000/svg" viewBox="0 0 373.33 373.33"><defs><style>.cls-1{fill:#2660a4;}</style></defs><path class="cls-1" d="M186.67,0C83.57,0,0,83.57,0,186.67s83.57,186.67,186.67,186.67,186.67-83.57,186.67-186.67S289.76,0,186.67,0Zm5.53,115.16c.6-3.17,3.66-5.25,6.83-4.64,30.73,5.86,53.46,28.59,59.32,59.32,.6,3.17-1.47,6.22-4.64,6.83-.37,.07-.74,.1-1.1,.1-2.75,0-5.19-1.95-5.73-4.75-4.94-25.92-24.12-45.09-50.04-50.04-3.17-.6-5.24-3.66-4.64-6.83Zm-11.53,32.67c.17-3.22,2.91-5.69,6.14-5.52,20.79,1.1,36.67,16.98,37.76,37.76,.17,3.22-2.3,5.97-5.52,6.14-.1,0-.21,0-.31,0-3.08,0-5.66-2.42-5.82-5.53-.77-14.71-12.01-25.94-26.72-26.72-3.22-.17-5.69-2.92-5.52-6.14Zm100.31,116.92c-5.47,8.45-14.93,18.2-31.28,26.67-38.03,19.72-111.9-54.4-114.8-57.33l-.09,.09s-77.58-76.15-57.47-114.94c8.48-16.35,18.23-25.8,26.67-31.28,9.87-6.4,23.13-2.58,28.27,8l14.71,30.32c3.06,6.31,2.53,13.78-1.4,19.6l-7.25,10.72,2.84,5.9c14.7,30.52,39.98,54.66,71.15,67.92l10.72-7.25c5.81-3.93,13.28-4.46,19.6-1.4l30.32,14.71c10.58,5.14,14.39,18.39,8,28.27Zm7.09-97.72c-.55,.16-1.1,.24-1.64,.24-2.53,0-4.85-1.65-5.6-4.2-10.68-36.43-36.62-62.38-73.06-73.06-3.09-.91-4.87-4.15-3.96-7.24,.91-3.09,4.15-4.87,7.24-3.96,39.8,11.66,69.31,41.18,80.98,80.98,.91,3.09-.87,6.34-3.96,7.24Z"/></svg>
