<?xml version="1.0" encoding="utf-8"?>
<!-- Generator: Adobe Illustrator 27.0.0, SVG Export Plug-In . SVG Version: 6.00 Build 0)  -->
<svg version="1.1" id="svg512" xmlns="http://www.w3.org/2000/svg" xmlns:xlink="http://www.w3.org/1999/xlink" x="0px" y="0px"
	 viewBox="0 0 768 768" style="enable-background:new 0 0 768 768;" xml:space="preserve">
<style type="text/css">
	.st0{fill:#6E7E85;}
	.st1{fill:#FCF6F7;}
	.st2{fill:none;stroke:#893644;stroke-width:6;stroke-miterlimit:10;}
	.st3{fill:#3AF45B;}
	.st4{fill:#BD4557;}
	.st5{fill:none;stroke:#BD4557;stroke-width:7.0254;}
	.st6{fill:none;stroke:#BD4557;stroke-width:10.5381;}
	.st7{fill:none;stroke:#FAF5F6;stroke-width:21.0762;}
	.st8{fill:none;stroke:#FAF5F6;stroke-width:45.6652;}
	.st9{fill:none;stroke:#FAF5F6;stroke-width:28.1016;}
	.st10{fill:none;stroke:#FAF5F6;stroke-width:28.769;}
	.st11{fill:none;stroke:#FAF5F6;stroke-width:28.5583;}
	.st12{fill:none;stroke:#FAF5F6;stroke-width:28.5232;}
	.st13{fill:none;stroke:#FAF5F6;stroke-width:10.5381;}
	.st14{fill:#FAF5F6;}
	.st15{fill:#893644;}
	.st16{fill:#00C142;}
	.st17{fill:#372D3A;}
</style>
<rect class="st0" width="768" height="768"/>
<rect id="floor" y="604.1" class="st1" width="768" height="163.9"/>
<path id="spring" class="st2" d="M527.1,454c-13.3,10.7-29.5,27.6-32,50.2c-3.5,31,11.7,51,27.2,77.4
	c19.2,32.6,30.8,65.4-18.1,115.8"/>
<g id="lone_x5F_leaf">
	<path class="st3" d="M522.3,459.9c-6.3-11.2-8.1-23.8-7-28.8c5.4-25,41.9-47.6,89.4-55c-6.6,47.6-29.2,85.1-54.1,91
		C545.6,468.2,533.6,466,522.3,459.9z"/>
	<path class="st3" d="M604.7,376.1c-27.1,27.5-55.3,56.2-82.4,83.8L604.7,376.1z"/>
</g>
<g id="houses">
	<g id="house3">
		<path id="path276" class="st4" d="M0,626.5h349.9V95H0V626.5z"/>
		<g id="antenna2">
			<path id="path346" class="st5" d="M320.4,95V38.4"/>
			<rect x="296.8" y="67.8" transform="matrix(0.866 -0.5 0.5 0.866 7.3219 170.3531)" class="st4" width="49.5" height="7.4"/>
			<rect x="294.8" y="52" transform="matrix(0.866 -0.5 0.5 0.866 14.963 167.2453)" class="st4" width="49.5" height="7.4"/>
		</g>
		<g id="dish">
			<path id="path350" class="st5" d="M53,128.7V72.1"/>
			<path id="path366" class="st6" d="M73.8,79.2c-15.5,0-25.3-7.7-29.5-23.2"/>
		</g>
	</g>
	<g id="house2">
		<path id="path278" class="st7" d="M222.3,631.9V230.7"/>
		<path id="path282" class="st8" d="M0,232.5h253.2"/>
		<path id="path286" class="st9" d="M0,306.2h212.8"/>
		<path id="path290" class="st10" d="M0,371.6h222.7"/>
		<path id="path294" class="st9" d="M0,438.3h211.8"/>
		<path id="path298" class="st11" d="M0,503.3h218.5"/>
		<path id="path302" class="st12" d="M0,567.6h218.8"/>
		<path id="path322" class="st13" d="M229.4,577.4l47.8-0.4"/>
		<path id="path101" class="st14" d="M224.8,567.2H281v21.1h-56.2V567.2z"/>
		<path id="path328" class="st9" d="M245.2,630.1v-53"/>
		<path id="path332" class="st13" d="M60,578.1v50.6"/>
		<path id="path336" class="st13" d="M152.1,576v50.6"/>
	</g>
</g>
<g id="tree">
	<path id="tree_x5F_body" class="st15" d="M482.7,406.3c-1.3,13.2-37.3-8.8-100-77c-36.3-39.4-73.6-63.6-76.5-62
		c-2.9,1.6,32.6,34.3,71.5,87.5c28.8,39.5,86.2,84.2,68.2,78.6c-18.6-5.8-66,14-65,13c0.8-1.1,62.6-2,83.3,37.9
		c4.1,8-1.6,31.7,0.8,39.2c0,0,0.5,47,25.7,78.8c28.4,35.8-4.3,93.6-45.3,106.1c-6.8,2.1-11.3,12.3-9.5,14.4
		c52.9,1.4,159.5-0.7,212.5,0.8c1.4-1.1-3-5.4-7.8-9.6c-7.1-6.1-12.7-13.9-16.4-22.6c-31.7-93.1-28.7-78.4-63.4-137.9
		c-16-27.6-8.5-63.5,4.3-85c14.5-24.2,33.6-44,38.5-51.7c11.6-18.1,20.9-23.7,19.1-25.3c-4.8-4.1-52.5,60.1-69.6,51.7
		c-14.3-6.9-3.9-62.6,18.1-111.2c25.4-56,109.7-80.5,109.5-89c2.7,1.6-85.7,22.8-133.2,85.3c-12.6,16.7-31.9,16.3-47-41.2
		c-11.5-43.5,14.7-90.4,12.4-90.9c-4.1-0.9-28.3,33.5-33.6,51.8c-2.6,9-116.4-117.8-128.8-114c-0.2,0.1-0.4,0.2-0.5,0.4
		c-7,7.3,73.8,73.8,111.5,156.4C498.9,373.2,486.2,369.1,482.7,406.3z"/>
	<g id="leaf1">
		<path class="st3" d="M401.1,440.9c0.7,10.6-2.6,20.6-5.1,23.9c-13,16.6-48.3,20.2-86.2,8.7c22-33,52.4-52.8,73-48.1
			C386.9,426.4,394.9,432.2,401.1,440.9z"/>
		<path class="st3" d="M309.8,473.5c30.1-10.8,61.3-21.9,91.3-32.5L309.8,473.5z"/>
	</g>
	<g id="leaf6">
		<g>
			<path class="st16" d="M614.5,403.8c3.4-7.6,9.4-13.3,12.4-14.6c15.1-6.7,40.8,3.7,62.8,25.7c-27.4,14.7-55.6,17.2-68.2,6.4
				C619,419.3,615.7,412.1,614.5,403.8z"/>
			<path class="st16" d="M689.7,414.9c-24.7-3.6-50.5-7.4-75.2-11L689.7,414.9z"/>
		</g>
		<g>
			<path class="st3" d="M604.1,407.8c-7.7-2.1-14.2-6.9-15.9-9.6c-8.7-13.5-2.7-39.5,15-64c18.2,23.9,24.9,50.5,16.6,64.1
				C618.1,401.1,611.8,405.5,604.1,407.8z"/>
			<path class="st3" d="M603.1,334.3c0.4,24.2,0.6,49.4,0.9,73.5L603.1,334.3z"/>
		</g>
		<g>
			<path class="st3" d="M628.2,385c-3.4-10.1-2.9-20.5-1.3-24.4c8.2-19.4,41.3-32.2,80.8-31c-12.6,37.5-36.6,64.6-57.8,65.6
				C645.7,395.3,636.4,391.7,628.2,385z"/>
			<path class="st3" d="M707.7,329.6c-26.2,18.2-53.5,37.2-79.5,55.4L707.7,329.6z"/>
		</g>
	</g>
	<g id="leaf5">
		<g>
			<path class="st3" d="M672.3,235c-3.4-10.1-2.9-20.5-1.3-24.4c8.2-19.4,41.3-32.2,80.8-31c-12.6,37.5-36.6,64.6-57.8,65.6
				C689.8,245.5,680.5,241.8,672.3,235z"/>
			<path class="st3" d="M751.8,179.7c-26.2,18.2-53.5,37.2-79.5,55.4L751.8,179.7z"/>
		</g>
		<g>
			<path class="st16" d="M656.4,258.2c-6.9-1.2-12.7-4.7-14.5-6.9c-8.7-10.8-5.7-33.8,7.4-56.4c17.8,18.9,25.8,41.3,19.8,53.8
				C667.8,251.3,662.8,255.6,656.4,258.2z"/>
			<path class="st16" d="M649.2,195c2.3,20.8,4.8,42.5,7.1,63.2L649.2,195z"/>
		</g>
		<g>
			<path class="st16" d="M629.9,271.7c5.4-3.5,11.6-4.8,14.2-4.4c12.6,1.9,25.3,19.3,30.5,42.8c-24-1.6-43.6-11.7-47.4-24
				C626.5,283.6,627.2,277.6,629.9,271.7z"/>
			<path class="st16" d="M674.6,310c-14.7-12.6-30.1-25.7-44.7-38.4L674.6,310z"/>
		</g>
		<g>
			<path class="st3" d="M650.4,269.5c0.7-9,4.7-17,7.4-19.4c13-12.3,43-11,73.6,3.4c-22.7,24.9-50.6,37.8-67.4,31.3
				C660.6,283.6,654.6,277.6,650.4,269.5z"/>
			<path class="st3" d="M731.3,253.5c-26.6,5.3-54.3,10.8-80.8,16L731.3,253.5z"/>
		</g>
	</g>
	<g id="leaf4">
		<g>
			<path class="st16" d="M491.4,225.5c-6.8-0.5-12.9-3.4-14.7-5.4c-9.5-9.7-8.7-32.5,2-55.7c19.1,17,29,37.9,24.3,50.6
				C502.1,217.6,497.5,222.3,491.4,225.5z"/>
			<path class="st16" d="M478.7,164.4c4.2,20.1,8.7,40.9,12.9,61.1L478.7,164.4z"/>
		</g>
		<g>
			<path class="st3" d="M502.2,208.1c-3.4-10.1-2.9-20.5-1.3-24.4c8.2-19.4,41.3-32.2,80.8-31c-12.6,37.5-36.6,64.6-57.8,65.6
				C519.9,218.4,510.5,214.8,502.2,208.1z"/>
			<path class="st3" d="M581.9,152.7c-26.2,18.2-53.5,37.2-79.5,55.4L581.9,152.7z"/>
		</g>
	</g>
	<g id="leaf2">
		<g>
			<path class="st16" d="M321.1,303.1c-6.9-8.1-10.3-18-10.3-22.2c0.5-21.1,26.3-45.3,63.6-58.7c2.2,39.5-10.2,73.6-29.4,82.3
				C341.3,306.2,331.3,306.3,321.1,303.1z"/>
			<path class="st16" d="M374.5,222.2c-17.5,26.6-35.8,54.4-53.3,80.9L374.5,222.2z"/>
		</g>
		<g>
			<path class="st16" d="M341.5,311.2c0.6,9.1-2.1,17.8-4.3,20.7c-11.2,14.4-41.6,17.8-74.4,8c18.8-28.5,45-45.8,62.8-41.9
				C329.1,298.7,336.1,303.8,341.5,311.2z"/>
			<path class="st16" d="M262.8,339.8c25.8-9.4,52.9-19.2,78.8-28.5L262.8,339.8z"/>
		</g>
		<g>
			<path class="st3" d="M324.5,300.1c-6.7,8.3-15.7,13.5-19.9,14.2c-20.8,3.5-49.4-17.4-69.6-51.5c38.5-9.6,74.2-3.9,86.3,13.5
				C323.8,279.7,325.8,289.5,324.5,300.1z"/>
			<path class="st3" d="M235.1,262.8c29.5,12.3,60.1,25,89.5,37.3L235.1,262.8z"/>
		</g>
	</g>
	<g id="leaf3">
		<g>
			<path class="st16" d="M365.1,138.1c-5-6.9-7-15-6.7-18.4c1.8-16.7,24-34.3,54.5-42.7c-0.8,31.7-12.9,58-28.8,63.6
				C381,141.8,373,141.4,365.1,138.1z"/>
			<path class="st16" d="M413,77.1c-15.7,20-32.2,40.9-47.8,61.1L413,77.1z"/>
		</g>
		<g>
			<path class="st16" d="M389.2,181.9c-2,7.3-6.5,13.1-9,14.6c-12.5,8-36.8,2.1-59.3-14.5c22.3-16.7,47.1-22.7,59.8-14.9
				C383.2,168.8,387.2,174.7,389.2,181.9z"/>
			<path class="st16" d="M320.9,182.1c22.5-0.1,45.8-0.1,68.3-0.2L320.9,182.1z"/>
		</g>
		<g>
			<path class="st3" d="M387.7,176.7c-5.3-6.3-7.8-13.9-7.8-17.2c0.5-16.3,20.6-34.7,49.4-45.1c1.5,30.5-8.2,56.7-23,63.4
				C403.2,179.3,395.5,179.3,387.7,176.7z"/>
			<path class="st3" d="M429.3,114.5c-13.7,20.5-28,41.8-41.6,62.2L429.3,114.5z"/>
		</g>
		<g>
			<path class="st3" d="M347.1,126.3c-9.9-0.7-18.7-4.9-21.4-7.8c-13.7-14.2-12.6-47.3,2.8-80.8c27.7,24.6,42.1,55.1,35.3,73.6
				C362.4,114.9,355.9,121.6,347.1,126.3z"/>
			<path class="st3" d="M328.5,37.6c6.1,29.1,12.5,59.5,18.6,88.7L328.5,37.6z"/>
		</g>
		<g>
			<path class="st3" d="M370.4,154.5c-5.4,8.3-13.3,13.9-17.2,15c-19.1,5.1-47.5-11.8-69.4-41.6c34.9-12.4,68.7-10.3,81.5,4.7
				C367.8,135.5,370.6,144.5,370.4,154.5z"/>
			<path class="st3" d="M283.8,127.8c28.4,8.8,58.1,17.9,86.6,26.6L283.8,127.8z"/>
		</g>
	</g>
	<path id="duplo" class="st17" d="M535.8,554.7c7.6,19.4,1.4,36.4-12.9,39.5c-19.1,4.2-31.7-20.7-31.7-41.5
		c0-20.8,13.2-42.7,27.4-41.8C529.3,511.7,529.9,539.9,535.8,554.7z"/>
</g>
</svg>
